<svg xmlns="http://www.w3.org/2000/svg" viewBox="0 0 716 665"><defs><style>.cls-1{fill:#58949c;}.cls-2{fill:#fff;stroke:#fff;stroke-miterlimit:10;stroke-width:12px;}</style></defs><title>Asset 18</title><g id="Layer_2" data-name="Layer 2"><g id="_2_Color" data-name="2 Color"><rect class="cls-1" width="716" height="665" rx="51.11"/><path class="cls-2" d="M589.32,144.74l94.1,65.47a3.44,3.44,0,0,1-2.65,6.2L577.54,195.75l7-46.08C585,146.48,588.67,144.9,589.32,144.74Z"/><path class="cls-2" d="M584,141.37,527.5,181.49a0,0,0,0,0,0,0L442.31,344.7a.13.13,0,0,0,0,.06L461,430s-17,75-17,75,36,21.06,36,21l98-323.77h0l7.6-59.91A1,1,0,0,0,584,141.37Z"/><path class="cls-2" d="M465.54,425.05l14,100.34a9.73,9.73,0,0,1-10.68,11L192.63,506.66l30-134.73Z"/><polygon class="cls-2" points="442.72 346.02 288.86 307.16 225.76 368.05 459.18 423.16 442.72 346.02"/><path class="cls-2" d="M288.86,307.16,148.2,52.79a2,2,0,0,0-3.74,1.48l79.72,313.78Z"/><path class="cls-2" d="M449.76,422.45,43,601.94a4.15,4.15,0,0,1-4.88-6.44L224.76,367.05Z"/></g></g></svg>