<svg xmlns="http://www.w3.org/2000/svg" viewBox="0 0 17.39 17.39"><defs><style>.cls-1{fill:#58949c;}</style></defs><title>Asset 1</title><g id="Layer_2" data-name="Layer 2"><g id="Capa_1" data-name="Capa 1"><path id="world" class="cls-1" d="M8.7,0a8.7,8.7,0,1,0,8.69,8.7A8.69,8.69,0,0,0,8.7,0Zm7.55,8.41H12.89a11.2,11.2,0,0,0-.64-3.51,9.73,9.73,0,0,0,2.09-1.23A7.44,7.44,0,0,1,16.25,8.41ZM8.39,16.25A8.75,8.75,0,0,1,6.1,13.3a8.4,8.4,0,0,1,2.31-.38v3.33ZM9,1.14a9,9,0,0,1,2.51,3.43A8.21,8.21,0,0,1,9,5V1.14Zm.94.09a7.54,7.54,0,0,1,4,2A8.77,8.77,0,0,1,12,4.38,10,10,0,0,0,9.94,1.23ZM8.41,1.14V5a8.21,8.21,0,0,1-2.53-.46A9,9,0,0,1,8.39,1.14Zm-3,3.24A8.61,8.61,0,0,1,3.43,3.26a7.54,7.54,0,0,1,4-2A9.85,9.85,0,0,0,5.36,4.38Zm.31.71a9.24,9.24,0,0,0,2.74.51V8.41H5.06A10.62,10.62,0,0,1,5.67,5.09ZM8.41,9v3.38a8.89,8.89,0,0,0-2.54.43A10.58,10.58,0,0,1,5.06,9Zm-1,7.18a7.56,7.56,0,0,1-3.67-1.71,8.32,8.32,0,0,1,1.79-1A9.72,9.72,0,0,0,7.45,16.16ZM9,16.25V12.92a8.4,8.4,0,0,1,2.31.38A8.85,8.85,0,0,1,9,16.25Zm2.84-2.76a8.32,8.32,0,0,1,1.79,1,7.56,7.56,0,0,1-3.67,1.71A9.72,9.72,0,0,0,11.82,13.49Zm-.3-.7A8.89,8.89,0,0,0,9,12.36V9h3.35A10.58,10.58,0,0,1,11.52,12.79ZM9,8.41V5.6a9.24,9.24,0,0,0,2.74-.51,10.63,10.63,0,0,1,.61,3.33H9ZM3.05,3.67A9.73,9.73,0,0,0,5.14,4.9,11.2,11.2,0,0,0,4.5,8.41H1.14A7.44,7.44,0,0,1,3.05,3.67ZM1.14,9H4.5a11,11,0,0,0,.84,4,9.48,9.48,0,0,0-2,1.08A7.51,7.51,0,0,1,1.14,9ZM14,14.06a9.48,9.48,0,0,0-2-1.08,11,11,0,0,0,.84-4h3.36A7.51,7.51,0,0,1,14,14.06Z"/></g></g></svg>