<svg xmlns="http://www.w3.org/2000/svg" viewBox="0 0 17.74 17.21"><defs><style>.cls-1{fill:#58949c;}</style></defs><title>Asset 1</title><g id="Layer_2" data-name="Layer 2"><g id="Capa_1" data-name="Capa 1"><path class="cls-1" d="M5.17,0A5.1,5.1,0,0,0,0,5v7.17a5.1,5.1,0,0,0,5.18,5h7.39a5.1,5.1,0,0,0,5.17-5V5a5.1,5.1,0,0,0-5.17-5Zm8.88,2.87a.73.73,0,0,1,.74.72.74.74,0,1,1-.74-.72ZM8.87,4.3a4.38,4.38,0,0,1,4.44,4.31,4.38,4.38,0,0,1-4.44,4.3,4.37,4.37,0,0,1-4.43-4.3A4.38,4.38,0,0,1,8.87,4.3Zm0,1.44a2.92,2.92,0,0,0-3,2.87,3,3,0,0,0,5.92,0A2.92,2.92,0,0,0,8.87,5.74Z"/></g></g></svg>